# xmcd
#
# Track frame offsets: 
#        150
#        1284
#        18942
#        28419
#        41973
#        45915
#        69945
#        77613
#        93489
#        95136
#        110310
#        110715
#        132234
#        141981
#        160665
#        168198
#        184830
#        188367
#        203271
#        205404
#        221091
#        231513
#        254868
#        272850
#        286890
#        289698
#        308220
#        311622
#        328767
#
# Disc length: 4396 seconds
#
# Revision: 0
# Processed by: cddbd v1.5.2PL0 Copyright (c) Steve Scherf et al.
# Submitted via: ExactAudioCopy v0.95b3
#
DISCID=a9112a1d
DTITLE=The Beatles  - The Days In Their Life - Vol.17  FLAC
DYEAR=1900
DGENRE=
TTITLE0=Narrative
TTITLE1=Bangla Desh (George Harrison)
TTITLE2=Narrative
TTITLE3=Imagine (John Lennon)
TTITLE4=Narrative
TTITLE5=How Do You Sleep (John Lennon)
TTITLE6=Narrative
TTITLE7=(John Lennon And Yoko Ono)
TTITLE8=Narrative
TTITLE9=Tomorrow (Wings)
TTITLE10=Narrative
TTITLE11=Love Is Strange (Wings)
TTITLE12=NarrativeRavi Shankar
TTITLE13=Mr. Tambourine Man (Bob Dylan)
TTITLE14=Narrative
TTITLE15=Give Ireland Back To The Irish (Wings)
TTITLE16=Narrative
TTITLE17=Back Off Boogaloo (Ringo Starr)
TTITLE18=Narrative
TTITLE19=Mary Had A Little Lamb (Wings)
TTITLE20=Narrative
TTITLE21=Woman Is The Nigger Of The World
TTITLE22=NarrativeCold TurkeyWell (Baby Please Don't Go)
TTITLE23=Hi Hi Hi (Wings)
TTITLE24=Narrative
TTITLE25=My Love (Paul McCartney And Wings)
TTITLE26=Narrative
TTITLE27=Big Barn Bed (Paul McCartney And Wings)
TTITLE28=Narrative
EXTD=
EXTT0=
EXTT1=
EXTT2=
EXTT3=
EXTT4=
EXTT5=
EXTT6=
EXTT7=
EXTT8=
EXTT9=
EXTT10=
EXTT11=
EXTT12=
EXTT13=
EXTT14=
EXTT15=
EXTT16=
EXTT17=
EXTT18=
EXTT19=
EXTT20=
EXTT21=
EXTT22=
EXTT23=
EXTT24=
EXTT25=
EXTT26=
EXTT27=
EXTT28=
PLAYORDER=
